<svg width="24" height="20" viewBox="0 0 24 20" fill="none" xmlns="http://www.w3.org/2000/svg">
<path d="M19.9831 7.91467C21.2323 9.40387 20.9726 11.2263 20.9726 12.8333C20.9726 17.2601 15.0504 18.5 12 18.5C8.94952 18.5 3.02738 17.2601 3.02738 12.8333C3.02738 11.2263 2.76765 9.40387 4.01684 7.91467M19.9831 7.91467C19.7639 7.654 19.4996 7.40467 19.1781 7.16667M19.9831 7.91467C20.7702 8.3714 20.9715 6.66233 20.9726 6.1036V3.97973C20.9726 2.13807 19.7166 1.5 18.6395 1.5C17.5634 1.5 15.4091 3.2714 14.6918 3.2714C13.8305 3.2714 13.6641 3.09347 12 3.09347C10.3359 3.09347 10.1695 3.2714 9.3082 3.2714C8.59084 3.2714 6.43652 1.5 5.36048 1.5C4.28444 1.5 3.02738 2.13807 3.02738 3.97973V6.10473C3.02963 6.66233 3.22977 8.3714 4.01684 7.91467M4.01684 7.91467C4.23609 7.654 4.50033 7.40467 4.8219 7.16667" stroke="#B2A2CD" stroke-width="1.15" stroke-linecap="round"/>
<path d="M12.9288 13.9667C12.9288 14.1627 12.5229 14.3214 12.0214 14.3214C11.5211 14.3214 11.1152 14.1627 11.1152 13.9667C11.1152 13.7706 11.5211 13.6131 12.0214 13.6131C12.5218 13.6131 12.9288 13.7717 12.9288 13.9667ZM15.9354 11.2399C15.9354 11.7283 15.6914 12.125 15.3912 12.125C15.091 12.125 14.847 11.7283 14.847 11.2399C14.847 10.7514 15.091 10.3547 15.3912 10.3547C15.6914 10.3547 15.9354 10.7525 15.9354 11.2399ZM9.18908 11.2399C9.18908 11.7283 8.94509 12.125 8.64488 12.125C8.34467 12.125 8.10068 11.7283 8.10068 11.2399C8.10068 10.7514 8.34467 10.3547 8.64488 10.3547C8.94509 10.3547 9.18908 10.7525 9.18908 11.2399Z" stroke="#B2A2CD" stroke-width="1.15"/>
<path d="M23.2439 13.3649C22.7008 13.0101 20.3429 12.125 19.4356 12.125M21.4302 16.1982C20.886 15.8435 19.6166 14.9583 18.7092 14.9583M0.756134 13.3649C1.30034 13.0101 3.65705 12.125 4.56443 12.125M2.56977 16.1982C3.11397 15.8435 4.3834 14.9583 5.29078 14.9583" stroke="#B2A2CD" stroke-width="1.15" stroke-linecap="round"/>
</svg>
