<svg width="48" height="38" viewBox="0 0 48 38" fill="none" xmlns="http://www.w3.org/2000/svg">
<path d="M39.9662 14.8293C42.4646 17.8077 41.9452 21.4525 41.9452 24.6667C41.9452 33.5203 30.1009 36 24 36C17.899 36 6.05476 33.5203 6.05476 24.6667C6.05476 21.4525 5.53529 17.8077 8.03368 14.8293M39.9662 14.8293C39.5277 14.308 38.9993 13.8093 38.3561 13.3333M39.9662 14.8293C41.5404 15.7428 41.9429 12.3247 41.9452 11.2072V6.95947C41.9452 3.27613 39.4333 2 37.279 2C35.1269 2 30.8182 5.5428 29.3835 5.5428C27.661 5.5428 27.3281 5.18693 24 5.18693C20.6718 5.18693 20.339 5.5428 18.6164 5.5428C17.1817 5.5428 12.873 2 10.721 2C8.56889 2 6.05476 3.27613 6.05476 6.95947V11.2095C6.05926 12.3247 6.45954 15.7428 8.03368 14.8293M8.03368 14.8293C8.47219 14.308 9.00065 13.8093 9.6438 13.3333" stroke="#9F7EC5" stroke-width="2.3" stroke-linecap="round"/>
<path d="M25.8576 26.9333C25.8576 27.3255 25.0458 27.6428 24.0428 27.6428C23.0421 27.6428 22.2303 27.3255 22.2303 26.9333C22.2303 26.5412 23.0421 26.2261 24.0428 26.2261C25.0435 26.2261 25.8576 26.5435 25.8576 26.9333ZM31.8708 21.4797C31.8708 22.4567 31.3828 23.25 30.7824 23.25C30.182 23.25 29.694 22.4567 29.694 21.4797C29.694 20.5028 30.182 19.7095 30.7824 19.7095C31.3828 19.7095 31.8708 20.5051 31.8708 21.4797ZM18.3782 21.4797C18.3782 22.4567 17.8902 23.25 17.2898 23.25C16.6893 23.25 16.2014 22.4567 16.2014 21.4797C16.2014 20.5028 16.6893 19.7095 17.2898 19.7095C17.8902 19.7095 18.3782 20.5051 18.3782 21.4797Z" stroke="#9F7EC5" stroke-width="2.3"/>
<path d="M46.4877 25.7297C45.4015 25.0203 40.6859 23.25 38.8711 23.25M42.8604 31.3964C41.772 30.6869 39.2332 28.9167 37.4184 28.9167M1.51227 25.7297C2.60067 25.0203 7.3141 23.25 9.12886 23.25M5.13954 31.3964C6.22794 30.6869 8.76681 28.9167 10.5816 28.9167" stroke="#9F7EC5" stroke-width="2.3" stroke-linecap="round"/>
</svg>
