<svg width="18" height="18" viewBox="0 0 18 18" fill="none" xmlns="http://www.w3.org/2000/svg">
<path d="M1.98018 16.83H6.29971V10.8901C6.29971 10.6226 6.39058 10.3983 6.57232 10.2174C6.75327 10.0356 6.97752 9.94475 7.24505 9.94475H10.755C11.0225 9.94475 11.2471 10.0356 11.4289 10.2174C11.6098 10.3983 11.7003 10.6226 11.7003 10.8901V16.83H16.0198V6.66064C16.0198 6.54053 15.9937 6.43133 15.9414 6.33305C15.8892 6.23477 15.8178 6.14898 15.7273 6.07566L9.42822 1.32792C9.3081 1.2234 9.16536 1.17114 9.00001 1.17114C8.83465 1.17114 8.6923 1.2234 8.57297 1.32792L2.27267 6.07566C2.18298 6.15054 2.11161 6.23633 2.05857 6.33305C2.00553 6.42977 1.9794 6.53897 1.98018 6.66064V16.83ZM0.810211 16.83V6.66064C0.810211 6.36113 0.877289 6.07761 1.01145 5.81008C1.1456 5.54254 1.33046 5.3222 1.56601 5.14904L7.8663 0.377901C8.19624 0.125967 8.57297 0 8.9965 0C9.42003 0 9.7991 0.125967 10.1337 0.377901L16.434 5.14787C16.6703 5.32103 16.8552 5.54176 16.9886 5.81008C17.1227 6.07761 17.1898 6.36113 17.1898 6.66064V16.83C17.1898 17.1436 17.0732 17.417 16.84 17.6502C16.6068 17.8834 16.3334 18 16.0198 18H11.4757C11.2074 18 10.9827 17.9095 10.8018 17.7286C10.6208 17.5468 10.5303 17.3222 10.5303 17.0547V11.1159H7.46969V17.0547C7.46969 17.323 7.37921 17.5476 7.19825 17.7286C7.0173 17.9095 6.79305 18 6.52552 18H1.98018C1.66663 18 1.39325 17.8834 1.16003 17.6502C0.926818 17.417 0.810211 17.1436 0.810211 16.83Z" fill="#B2A2CD"/>
</svg>
