<svg width="56" height="56" viewBox="0 0 56 56" fill="none" xmlns="http://www.w3.org/2000/svg">
<path fill-rule="evenodd" clip-rule="evenodd" d="M28 56C43.464 56 56 43.464 56 28C56 12.536 43.464 0 28 0C12.536 0 0 12.536 0 28C0 43.464 12.536 56 28 56ZM29.1423 15.5501C28.8393 15.2471 28.4284 15.0769 28 15.0769C27.5716 15.0769 27.1607 15.2471 26.8578 15.5501C26.5548 15.853 26.3846 16.2639 26.3846 16.6923V26.3846H16.6923C16.2639 26.3846 15.853 26.5548 15.5501 26.8578C15.2471 27.1607 15.0769 27.5716 15.0769 28C15.0769 28.4284 15.2471 28.8393 15.5501 29.1423C15.853 29.4452 16.2639 29.6154 16.6923 29.6154H26.3846V39.3077C26.3846 39.7361 26.5548 40.147 26.8578 40.4499C27.1607 40.7529 27.5716 40.9231 28 40.9231C28.4284 40.9231 28.8393 40.7529 29.1423 40.4499C29.4452 40.147 29.6154 39.7361 29.6154 39.3077V29.6154H39.3077C39.7361 29.6154 40.147 29.4452 40.45 29.1423C40.7529 28.8393 40.9231 28.4284 40.9231 28C40.9231 27.5716 40.7529 27.1607 40.45 26.8578C40.147 26.5548 39.7361 26.3846 39.3077 26.3846H29.6154V16.6923C29.6154 16.2639 29.4452 15.853 29.1423 15.5501Z" fill="#9F7EC5"/>
</svg>
