<svg width="175" height="63" viewBox="0 0 175 63" fill="none" xmlns="http://www.w3.org/2000/svg">
<path d="M174.048 74.9457C174.145 73.5722 175.027 69.7363 174.999 68.9907C174.903 59.4353 166.385 27.9435 165.02 20.2717L164.937 19.8008C164.469 16.789 164.289 13.2081 162.732 10.3631C161.16 7.49841 156.074 6.49774 152.408 5.48726C137.232 1.36684 120.099 -2.10608 103.999 1.52381C97.7138 2.93652 92.0486 5.45783 87.5 9.43108C82.9651 5.45783 77.2862 2.93652 71.0146 1.52381C54.9152 -2.10608 37.7819 1.36684 22.606 5.48726C18.9395 6.48793 13.8257 7.4886 12.2682 10.3631C10.7106 13.2081 10.5314 16.7792 10.0628 19.8008L9.98007 20.2717C8.61548 27.9435 0.110893 59.4353 0.000623035 68.9907C-0.0269445 69.7461 0.869001 73.5722 0.965487 74.9457C1.10332 76.9274 0.772514 78.9189 0.910352 80.8909C0.634677 81.5776 0.882784 82.2251 1.47549 82.7352C1.86143 83.265 2.45413 83.5888 3.10197 83.7555C4.57684 84.9132 7.25089 84.1479 9.00142 83.7555C24.6874 80.1453 41.9309 80.2826 58.113 81.813C60.98 82.0779 63.8333 82.4115 66.6727 82.8039C69.6225 83.216 72.4206 83.9615 75.2462 84.6777C77.5757 85.2663 80.0154 85.7569 82.4689 86.0904C84.2332 86.3749 85.9562 86.4927 86.7419 86.5025C87.0176 86.5025 87.2657 86.4828 87.5276 86.473C87.7895 86.473 88.0513 86.5025 88.3132 86.5025C89.0989 86.5025 90.8219 86.3847 92.5862 86.0904C95.0397 85.7569 97.4795 85.2663 99.8089 84.6777C102.635 83.9615 105.446 83.216 108.396 82.8039C111.236 82.4115 114.089 82.0779 116.956 81.813C133.124 80.2826 150.382 80.1453 166.068 83.7555C167.804 84.1578 170.478 84.9132 171.953 83.7555C172.615 83.5888 173.194 83.265 173.58 82.7352C174.172 82.2251 174.42 81.5776 174.145 80.8909C174.241 78.9091 173.91 76.9274 174.048 74.9457ZM49.3879 62.1233C43.0611 61.9762 36.7206 62.2018 30.4628 62.8297C25.0871 63.3693 19.7803 64.2228 14.6114 65.3706C13.3571 65.6453 11.9512 65.871 10.7657 66.2928C10.0076 66.5675 9.38737 66.8814 8.71197 66.283C7.77467 65.4785 8.39494 64.0168 8.54656 63.0946C8.8498 61.2404 9.1944 59.396 9.59413 57.5516C11.3309 49.3402 13.6603 41.2073 15.2455 32.9763C15.9347 29.3366 16.4998 25.6675 17.1614 22.0278C17.4922 20.154 17.8644 18.2802 18.2917 16.4162C18.8155 14.1303 18.9257 12.5214 21.9306 11.1381C27.0444 8.78359 33.1782 7.74368 39.0363 6.73319C45.3492 5.64423 51.6484 4.72203 58.1819 4.89862C62.7581 5.02616 67.2103 5.88949 71.2489 7.41012C73.2062 8.14591 75.0808 9.00923 76.8589 9.96085C78.6233 10.8929 80.7735 11.8935 82.1795 13.0904C83.4338 14.1499 83.8335 15.1114 83.9576 16.2101C83.0892 30.2686 83.227 65.1254 83.3787 67.5976C83.3924 67.8036 83.42 68.0097 83.4338 68.2157C83.3649 68.4806 83.1581 68.6866 82.5516 68.6866C81.8211 68.6964 81.0216 68.353 80.3876 68.1176C79.0781 67.627 77.7549 67.1561 76.4316 66.7147C67.8719 63.8402 58.8573 62.3392 49.3879 62.1233ZM166.26 66.2732C165.571 66.8716 164.965 66.5577 164.207 66.283C163.035 65.8612 161.629 65.6355 160.361 65.3608C155.192 64.213 149.885 63.3693 144.51 62.8199C138.252 62.192 131.898 61.9762 125.571 62.1135C116.115 62.3294 107.101 63.8304 98.527 66.7049C97.2038 67.1561 95.8805 67.627 94.5711 68.1078C93.937 68.3432 93.1376 68.6768 92.3932 68.6768C91.7867 68.6768 91.58 68.4707 91.5111 68.2059C91.5249 67.9998 91.5662 67.7938 91.5662 67.5878C91.7178 65.1156 91.8695 30.2588 90.9873 16.2003C91.1114 15.1016 91.5111 14.1401 92.7516 13.0806C94.1851 11.8837 96.3216 10.8732 98.0859 9.95104C99.864 9.00923 101.725 8.1361 103.696 7.40031C107.748 5.87968 112.187 5.01635 116.763 4.88882C123.296 4.70242 129.596 5.63441 135.909 6.72338C141.767 7.73386 147.9 8.76397 153.028 11.1283C156.033 12.5116 156.143 14.1205 156.667 16.4064C157.094 18.2704 157.466 20.1442 157.797 22.018C158.445 25.6675 159.01 29.3268 159.713 32.9665C161.298 41.1877 163.642 49.3304 165.365 57.5418C165.737 59.3862 166.109 61.2306 166.412 63.0848C166.577 64.007 167.198 65.4687 166.26 66.2732Z" fill="#5D3F80" fill-opacity="0.7"/>
<path d="M72.4206 15.8765C59.3673 11.5207 41.7792 11.2852 28.6433 15.7588C25.1698 16.9459 28.2022 20.5267 31.6482 19.4181C42.8268 15.7882 58.1543 16.3376 69.0022 20.0362C72.9168 21.3606 76.3489 17.1911 72.4206 15.8765ZM72.007 27.3548C58.113 23.0186 40.2492 21.3802 26.2311 26.5209C23.1849 27.6393 25.859 30.7002 28.8776 29.7388C41.7379 25.6478 57.1481 28.0514 69.65 31.3477C72.8892 32.211 75.1911 28.3457 72.007 27.3548ZM71.2765 38.8037C69.8016 37.9208 67.7479 37.5087 65.9697 37.0476C53.0681 33.6924 35.9349 33.5551 23.5433 38.0679C20.8141 39.0588 23.116 41.8842 25.8038 41.3348C32.5579 39.9711 38.9122 39.2157 45.9281 39.1667C51.4279 39.1274 56.4176 39.5395 61.6692 40.6579C63.2543 40.9914 64.7706 41.119 66.2868 41.6291C67.3757 41.9921 68.7265 42.4532 69.9257 42.5611C72.5446 42.7868 73.0822 40.0496 71.6073 39.0097L71.2765 38.8037ZM69.9119 49.8601C54.9979 44.8568 38.2644 45.779 23.1711 49.5658C20.056 50.3507 21.5446 53.7647 24.7149 53.0584C31.8136 51.4691 37.7268 50.282 45.2665 50.2133C52.5168 50.1545 60.3873 51.8419 67.0311 53.6961C70.6011 54.7065 73.537 51.0766 69.9119 49.8601ZM105.97 20.0264C116.818 16.3278 132.146 15.7882 143.324 19.4083C146.756 20.5267 149.803 16.9361 146.329 15.749C133.207 11.2754 115.619 11.5109 102.566 15.8667C98.6235 17.1911 102.042 21.3606 105.97 20.0264ZM105.336 31.3477C117.838 28.0514 133.248 25.6478 146.109 29.7388C149.127 30.7002 151.801 27.6393 148.755 26.5209C134.723 21.3802 116.859 23.0186 102.979 27.3548C99.7951 28.3457 102.083 32.211 105.336 31.3477ZM105.047 42.5709C106.26 42.463 107.583 42.0019 108.672 41.6389C110.202 41.1288 111.718 41.0012 113.303 40.6677C118.555 39.5591 123.545 39.1471 129.044 39.1765C136.06 39.2157 142.428 39.9711 149.182 41.3446C151.856 41.894 154.158 39.0588 151.443 38.0777C139.051 33.5649 121.904 33.7022 109.016 37.0574C107.238 37.5185 105.185 37.9207 103.696 38.8135L103.365 39.0293C101.876 40.0496 102.442 42.7966 105.047 42.5709ZM151.815 49.5658C136.722 45.779 119.988 44.8568 105.074 49.8601C101.449 51.0766 104.385 54.7065 107.969 53.6961C114.599 51.8419 122.456 50.1545 129.72 50.2133C137.246 50.282 143.173 51.4691 150.258 53.0584C153.442 53.7745 154.93 50.3507 151.815 49.5658Z" fill="#5D3F80" fill-opacity="0.7"/>
</svg>
