<svg width="52" height="52" viewBox="0 0 52 52" fill="none" xmlns="http://www.w3.org/2000/svg">
<path d="M41.9662 21.8293C44.4646 24.8077 43.9452 28.4525 43.9452 31.6667C43.9452 40.5203 32.1009 43 26 43C19.899 43 8.05476 40.5203 8.05476 31.6667C8.05476 28.4525 7.53529 24.8077 10.0337 21.8293M41.9662 21.8293C41.5277 21.308 40.9993 20.8093 40.3561 20.3333M41.9662 21.8293C43.5404 22.7428 43.9429 19.3247 43.9452 18.2072V13.9595C43.9452 10.2761 41.4333 9 39.279 9C37.1269 9 32.8182 12.5428 31.3835 12.5428C29.661 12.5428 29.3281 12.1869 26 12.1869C22.6718 12.1869 22.339 12.5428 20.6164 12.5428C19.1817 12.5428 14.873 9 12.721 9C10.5689 9 8.05476 10.2761 8.05476 13.9595V18.2095C8.05926 19.3247 8.45954 22.7428 10.0337 21.8293M10.0337 21.8293C10.4722 21.308 11.0007 20.8093 11.6438 20.3333" stroke="#B2A2CD" stroke-width="2.3" stroke-linecap="round"/>
<path d="M27.8576 33.9333C27.8576 34.3255 27.0458 34.6428 26.0428 34.6428C25.0421 34.6428 24.2303 34.3255 24.2303 33.9333C24.2303 33.5412 25.0421 33.2261 26.0428 33.2261C27.0435 33.2261 27.8576 33.5435 27.8576 33.9333ZM33.8708 28.4797C33.8708 29.4567 33.3828 30.25 32.7824 30.25C32.182 30.25 31.694 29.4567 31.694 28.4797C31.694 27.5028 32.182 26.7095 32.7824 26.7095C33.3828 26.7095 33.8708 27.5051 33.8708 28.4797ZM20.3782 28.4797C20.3782 29.4567 19.8902 30.25 19.2897 30.25C18.6893 30.25 18.2013 29.4567 18.2013 28.4797C18.2013 27.5028 18.6893 26.7095 19.2897 26.7095C19.8902 26.7095 20.3782 27.5051 20.3782 28.4797Z" stroke="#B2A2CD" stroke-width="2.3"/>
<path d="M48.4877 32.7297C47.4016 32.0203 42.6859 30.25 40.8711 30.25M44.8605 38.3964C43.772 37.6869 41.2332 35.9167 39.4184 35.9167M3.51228 32.7297C4.60069 32.0203 9.31412 30.25 11.1289 30.25M7.13955 38.3964C8.22796 37.6869 10.7668 35.9167 12.5816 35.9167" stroke="#B2A2CD" stroke-width="2.3" stroke-linecap="round"/>
</svg>
