<svg width="121" height="85" viewBox="0 0 121 85" fill="none" xmlns="http://www.w3.org/2000/svg">
<path d="M46.8501 8.78059C51.1323 8.78059 51.9596 7.8986 60.2332 7.8986C68.5067 7.8986 69.3341 8.78059 73.6162 8.78059C77.1828 8.78059 87.8937 0 93.2435 0C98.5934 0 104.843 3.16281 104.843 12.2917V22.825C104.832 25.589 103.837 34.0606 99.9238 31.7966C106.135 39.1784 104.843 48.2118 104.843 56.1778C104.843 78.1208 75.3995 84.2667 60.2332 84.2667C45.0669 84.2667 15.6231 78.1208 15.6231 56.1778C15.6231 48.2118 14.3317 39.1784 20.5425 31.7966C16.6293 34.0606 15.6343 25.589 15.6231 22.8194V12.2917C15.6231 3.16281 21.8674 0 27.2228 0C32.5727 0 43.2836 8.78059 46.8501 8.78059Z" fill="#9A95A0"/>
<path d="M43.5519 39.6782C40.8183 39.6782 38.9959 41.4591 38.0735 42.9534C37.1184 44.5622 36.6268 46.4059 36.6536 48.279C36.6536 50.1441 37.112 52.043 38.0735 53.5991C38.9959 55.0934 40.8183 56.8799 43.5519 56.8799C46.2911 56.8799 48.108 55.0934 49.0303 53.5991C49.9919 52.0373 50.4503 50.1441 50.4503 48.279C50.4503 46.4083 49.9919 44.5151 49.0303 42.9534C48.108 41.4591 46.2911 39.6782 43.5519 39.6782ZM71.6205 42.9534C72.5373 41.4591 74.3597 39.6726 77.0989 39.6726C79.827 39.6726 81.6494 41.4591 82.5718 42.9534C83.5333 44.5151 83.9917 46.4083 83.9917 48.279C83.9917 50.1498 83.5333 52.043 82.5718 53.5991C81.6494 55.0934 79.8325 56.8799 77.0933 56.8799C74.3597 56.8799 72.5373 55.0934 71.6149 53.5991C70.6608 51.9919 70.1693 50.1503 70.195 48.279C70.195 46.4083 70.6534 44.5151 71.6205 42.9534Z" fill="black"/>
<path fill-rule="evenodd" clip-rule="evenodd" d="M55.638 56.6272C57.1448 56.0794 58.7371 55.8073 60.3394 55.8238C61.9717 55.8238 63.6376 56.0766 65.0463 56.6272C65.8844 56.941 66.6576 57.4076 67.3272 58.0035C68.0762 58.6945 69.0434 59.9697 69.0434 61.7955C69.0348 62.5127 68.8777 63.2201 68.5823 63.873C68.2868 64.5258 67.8594 65.1097 67.3272 65.5875C66.6576 66.1834 65.8844 66.65 65.0463 66.9639C63.632 67.5144 61.9717 67.7672 60.3394 67.7672C58.7182 67.7672 57.0523 67.5144 55.6436 66.9639C54.8015 66.6513 54.0244 66.1846 53.3516 65.5875C52.8204 65.1092 52.394 64.5251 52.0995 63.8723C51.805 63.2195 51.6489 62.5122 51.641 61.7955C51.641 59.9697 52.6081 58.6945 53.3572 58.0035C54.0267 57.4076 54.7999 56.941 55.638 56.6272Z" fill="black"/>
<path d="M93.0087 52.6667C93.0087 51.5493 93.4504 50.4776 94.2367 49.6874C95.023 48.8973 96.0894 48.4534 97.2014 48.4534C98.8561 48.4534 100.835 48.8298 102.685 49.2904C104.614 49.7679 106.71 50.4084 108.701 51.0937C112.524 52.4083 116.583 54.0824 118.411 55.2734C119.314 55.8923 119.942 56.8417 120.159 57.9188C120.376 58.996 120.165 60.1158 119.572 61.0393C118.979 61.9628 118.051 62.6169 116.985 62.8621C115.919 63.1073 114.8 62.9241 113.866 62.3518C112.988 61.7844 109.83 60.3855 105.989 59.0654C104.242 58.4602 102.47 57.928 100.679 57.4699C99.5433 57.151 98.3778 56.9533 97.2014 56.88C96.0894 56.88 95.023 56.4361 94.2367 55.646C93.4504 54.8558 93.0087 53.7841 93.0087 52.6667ZM93.5957 62.4978C92.4837 62.4978 91.4173 62.9417 90.631 63.7319C89.8447 64.522 89.403 65.5937 89.403 66.7111C89.403 67.8286 89.8447 68.9003 90.631 69.6904C91.4173 70.4806 92.4837 70.9245 93.5957 70.9245C94.7473 70.9245 96.6703 71.5705 99.0741 72.8514C100.986 73.8626 102.741 75.0142 104.111 75.9131L104.843 76.3962C105.777 77.0026 106.913 77.2113 108 76.9763C109.087 76.7414 110.037 76.0821 110.64 75.1434C111.244 74.2048 111.451 73.0637 111.218 71.9712C110.984 70.8786 110.328 69.9242 109.394 69.3178L108.762 68.9021C106.894 67.6464 104.969 66.4786 102.993 65.4022C100.438 64.0427 96.9554 62.4978 93.5957 62.4978ZM14.4771 59.0654C10.6366 60.3855 7.47812 61.7844 6.60604 62.3518C5.67199 62.9582 4.53648 63.1668 3.44932 62.9319C2.36216 62.697 1.41239 62.0376 0.808966 61.099C0.205539 60.1603 -0.00212291 59.0192 0.231664 57.9267C0.465451 56.8342 1.12154 55.8798 2.05559 55.2734C3.88919 54.0824 7.94211 52.4083 11.7658 51.0937C13.7615 50.4084 15.8579 49.7623 17.7865 49.2904C19.6313 48.8298 21.6102 48.4534 23.2649 48.4534C24.3769 48.4534 25.4433 48.8973 26.2296 49.6874C27.0159 50.4776 27.4576 51.5493 27.4576 52.6667C27.4576 53.7841 27.0159 54.8558 26.2296 55.646C25.4433 56.4361 24.3769 56.88 23.2649 56.88C22.6668 56.88 21.4928 57.0486 19.7878 57.4699C18.1666 57.8744 16.3163 58.4362 14.4771 59.0654ZM15.6231 76.3962L16.3554 75.9131C17.7306 75.0142 19.4859 73.8626 21.3922 72.8514C23.8016 71.5705 25.7246 70.9245 26.8706 70.9245C27.9826 70.9245 29.049 70.4806 29.8353 69.6904C30.6216 68.9003 31.0633 67.8286 31.0633 66.7111C31.0633 65.5937 30.6216 64.522 29.8353 63.7319C29.049 62.9417 27.9826 62.4978 26.8706 62.4978C23.5165 62.4978 20.0282 64.0427 17.479 65.4022C15.1871 66.6156 13.0628 68.0145 11.7043 68.9021L11.0726 69.3178C10.1386 69.9242 9.4825 70.8786 9.24871 71.9712C9.01493 73.0637 9.22259 74.2048 9.82602 75.1434C10.4294 76.0821 11.3792 76.7414 12.4664 76.9763C13.5535 77.2113 14.689 77.0026 15.6231 76.3962Z" fill="black"/>
</svg>
