<svg width="30" height="36" viewBox="0 0 30 36" fill="none" xmlns="http://www.w3.org/2000/svg">
<path fill-rule="evenodd" clip-rule="evenodd" d="M15.0001 8.77498e-06C12.6157 -0.00316639 10.3106 0.85544 8.50937 2.41763C6.70813 3.97982 5.53213 6.14035 5.19805 8.50114C4.86397 10.8619 5.39433 13.2639 6.69139 15.2646C7.98846 17.2652 9.96485 18.7297 12.2564 19.3882C9.00005 19.7836 6.20733 20.9346 4.10187 23.01C1.42369 25.6473 0.0682373 29.5773 0.0682373 34.7045C0.0682373 35.0481 0.204722 35.3776 0.447667 35.6206C0.690612 35.8635 1.02012 36 1.36369 36C1.70727 36 2.03677 35.8635 2.27972 35.6206C2.52266 35.3776 2.65915 35.0481 2.65915 34.7045C2.65915 30.0136 3.8946 26.85 5.92096 24.8536C7.95005 22.8545 10.9828 21.8182 15.0001 21.8182C19.0173 21.8182 22.0501 22.8545 24.0819 24.8536C26.1055 26.8527 27.341 30.0136 27.341 34.7045C27.341 35.0481 27.4774 35.3776 27.7204 35.6206C27.9633 35.8635 28.2928 36 28.6364 36C28.98 36 29.3095 35.8635 29.5524 35.6206C29.7954 35.3776 29.9319 35.0481 29.9319 34.7045C29.9319 29.5773 28.5764 25.65 25.8955 23.01C23.7955 20.9373 21 19.7836 17.7437 19.3882C20.0276 18.7223 21.995 17.2555 23.2853 15.2568C24.5756 13.2581 25.1024 10.8614 24.7691 8.5058C24.4357 6.15025 23.2646 3.99374 21.4704 2.43153C19.6762 0.869322 17.3791 0.00607292 15.0001 8.77498e-06ZM7.7046 9.88637C7.7046 7.9515 8.47323 6.09587 9.84139 4.72771C11.2096 3.35954 13.0652 2.59092 15.0001 2.59092C16.9349 2.59092 18.7906 3.35954 20.1587 4.72771C21.5269 6.09587 22.2955 7.9515 22.2955 9.88637C22.2955 11.8212 21.5269 13.6769 20.1587 15.045C18.7906 16.4132 16.9349 17.1818 15.0001 17.1818C13.0652 17.1818 11.2096 16.4132 9.84139 15.045C8.47323 13.6769 7.7046 11.8212 7.7046 9.88637Z" fill="#B2A2CD"/>
</svg>
