<svg width="52" height="52" viewBox="0 0 52 52" fill="none" xmlns="http://www.w3.org/2000/svg">
<path d="M11.9604 41.6601H20.5994V29.7802C20.5994 29.2451 20.7812 28.7966 21.1446 28.4347C21.5065 28.0712 21.955 27.8895 22.4901 27.8895H29.5099C30.045 27.8895 30.4943 28.0712 30.8577 28.4347C31.2196 28.7966 31.4006 29.2451 31.4006 29.7802V41.6601H40.0397V21.3213C40.0397 21.0811 39.9874 20.8627 39.8829 20.6661C39.7784 20.4695 39.6356 20.298 39.4547 20.1513L26.8564 10.6558C26.6162 10.4468 26.3307 10.3423 26 10.3423C25.6693 10.3423 25.3846 10.4468 25.1459 10.6558L12.5453 20.1513C12.366 20.3011 12.2232 20.4727 12.1171 20.6661C12.0111 20.8595 11.9588 21.0779 11.9604 21.3213V41.6601ZM9.62042 41.6601V21.3213C9.62042 20.7223 9.75458 20.1552 10.0229 19.6202C10.2912 19.0851 10.6609 18.6444 11.132 18.2981L23.7326 8.7558C24.3925 8.25193 25.1459 8 25.993 8C26.8401 8 27.5982 8.25193 28.2674 8.7558L40.868 18.2957C41.3407 18.6421 41.7104 19.0835 41.9771 19.6202C42.2454 20.1552 42.3796 20.7223 42.3796 21.3213V41.6601C42.3796 42.2872 42.1464 42.8339 41.68 43.3004C41.2135 43.7668 40.6668 44 40.0397 44H30.9513C30.4147 44 29.9654 43.819 29.6035 43.4571C29.2416 43.0937 29.0607 42.6444 29.0607 42.1093V30.2318H22.9394V42.1093C22.9394 42.646 22.7584 43.0952 22.3965 43.4571C22.0346 43.819 21.5861 44 21.051 44H11.9604C11.3333 44 10.7865 43.7668 10.3201 43.3004C9.85364 42.8339 9.62042 42.2872 9.62042 41.6601Z" fill="#B2A2CD"/>
</svg>
