<svg width="16" height="18" viewBox="0 0 16 18" fill="none" xmlns="http://www.w3.org/2000/svg">
<path fill-rule="evenodd" clip-rule="evenodd" d="M8 4.38749e-06C6.80784 -0.0015832 5.65528 0.42772 4.75465 1.20882C3.85403 1.98991 3.26603 3.07017 3.09899 4.25057C2.93196 5.43096 3.19713 6.63196 3.84567 7.63228C4.4942 8.63259 5.48239 9.36484 6.62818 9.69409C5 9.89182 3.60363 10.4673 2.55091 11.505C1.21182 12.8236 0.534088 14.7886 0.534088 17.3523C0.534088 17.5241 0.60233 17.6888 0.723803 17.8103C0.845275 17.9318 1.01003 18 1.18182 18C1.3536 18 1.51835 17.9318 1.63983 17.8103C1.7613 17.6888 1.82954 17.5241 1.82954 17.3523C1.82954 15.0068 2.44727 13.425 3.46045 12.4268C4.475 11.4273 5.99136 10.9091 8 10.9091C10.0086 10.9091 11.525 11.4273 12.5409 12.4268C13.5527 13.4264 14.1704 15.0068 14.1704 17.3523C14.1704 17.5241 14.2387 17.6888 14.3602 17.8103C14.4816 17.9318 14.6464 18 14.8182 18C14.99 18 15.1547 17.9318 15.2762 17.8103C15.3977 17.6888 15.4659 17.5241 15.4659 17.3523C15.4659 14.7886 14.7882 12.825 13.4477 11.505C12.3977 10.4686 11 9.89182 9.37181 9.69409C10.5138 9.36113 11.4975 8.62777 12.1426 7.62842C12.7878 6.62907 13.0512 5.43068 12.8845 4.2529C12.7178 3.07513 12.1323 1.99687 11.2352 1.21577C10.3381 0.434661 9.1895 0.00303646 8 4.38749e-06ZM4.35227 4.94319C4.35227 3.97575 4.73658 3.04793 5.42066 2.36385C6.10474 1.67977 7.03256 1.29546 8 1.29546C8.96743 1.29546 9.89525 1.67977 10.5793 2.36385C11.2634 3.04793 11.6477 3.97575 11.6477 4.94319C11.6477 5.91062 11.2634 6.83844 10.5793 7.52252C9.89525 8.2066 8.96743 8.59091 8 8.59091C7.03256 8.59091 6.10474 8.2066 5.42066 7.52252C4.73658 6.83844 4.35227 5.91062 4.35227 4.94319Z" fill="#B2A2CD"/>
</svg>
