<svg width="45" height="45" viewBox="0 0 45 45" fill="none" xmlns="http://www.w3.org/2000/svg">
<path d="M39.9816 22.0588C39.9816 26.8122 38.0933 31.371 34.7322 34.7321C31.371 38.0933 26.8122 39.9816 22.0588 39.9816C17.3054 39.9816 12.7467 38.0933 9.38549 34.7321C6.02432 31.371 4.13603 26.8122 4.13603 22.0588C4.13603 17.3054 6.02432 12.7467 9.38549 9.38549C12.7467 6.02432 17.3054 4.13603 22.0588 4.13603C26.8122 4.13603 31.371 6.02432 34.7322 9.38549C38.0933 12.7467 39.9816 17.3054 39.9816 22.0588ZM22.0588 0C16.2085 0 10.5977 2.32405 6.46088 6.46088C2.32405 10.5977 0 16.2085 0 22.0588C0 27.9092 2.32405 33.5199 6.46088 37.6568C10.5977 41.7936 16.2085 44.1176 22.0588 44.1176C27.9092 44.1176 33.5199 41.7936 37.6568 37.6568C41.7936 33.5199 44.1176 27.9092 44.1176 22.0588C44.1176 16.2085 41.7936 10.5977 37.6568 6.46088C33.5199 2.32405 27.9092 0 22.0588 0ZM15.1999 20.6801C15.9312 20.6801 16.6325 20.3896 17.1497 19.8725C17.6668 19.3554 17.9573 18.6541 17.9573 17.9228C17.9573 17.1915 17.6668 16.4902 17.1497 15.973C16.6325 15.4559 15.9312 15.1654 15.1999 15.1654C14.4686 15.1654 13.7673 15.4559 13.2502 15.973C12.7331 16.4902 12.4426 17.1915 12.4426 17.9228C12.4426 18.6541 12.7331 19.3554 13.2502 19.8725C13.7673 20.3896 14.4686 20.6801 15.1999 20.6801ZM31.744 17.9228C31.744 17.1915 31.4535 16.4902 30.9364 15.973C30.4193 15.4559 29.718 15.1654 28.9867 15.1654C28.2554 15.1654 27.554 15.4559 27.0369 15.973C26.5198 16.4902 26.2293 17.1915 26.2293 17.9228C26.2293 18.6541 26.5198 19.3554 27.0369 19.8725C27.554 20.3896 28.2554 20.6801 28.9867 20.6801C29.718 20.6801 30.4193 20.3896 30.9364 19.8725C31.4535 19.3554 31.744 18.6541 31.744 17.9228ZM15.7514 28.9522C15.7514 28.9522 13.6834 29.8742 13.6834 31.0202C13.6834 32.1662 14.6054 33.0882 15.7514 33.0882C21.4569 30.4959 24.2842 29.6519 29.2279 30.3309C30.374 30.3309 31.4338 29.8225 31.4338 28.6765C31.4338 27.5304 30.6066 26.7463 29.2279 26.4706C27.8493 26.1948 24.7999 26.3246 22.0588 26.7463C18.4743 27.2978 15.7514 28.9522 15.7514 28.9522Z" fill="#FCAE7C"/>
</svg>
