<svg width="80" height="80" viewBox="0 0 80 80" fill="none" xmlns="http://www.w3.org/2000/svg">
<path d="M72.5 40C72.5 48.6195 69.0759 56.886 62.981 62.981C56.886 69.0759 48.6195 72.5 40 72.5C31.3805 72.5 23.114 69.0759 17.019 62.981C10.9241 56.886 7.5 48.6195 7.5 40C7.5 31.3805 10.9241 23.114 17.019 17.019C23.114 10.9241 31.3805 7.5 40 7.5C48.6195 7.5 56.886 10.9241 62.981 17.019C69.0759 23.114 72.5 31.3805 72.5 40ZM40 0C29.3913 0 19.2172 4.21427 11.7157 11.7157C4.21427 19.2172 0 29.3913 0 40C0 50.6087 4.21427 60.7828 11.7157 68.2843C19.2172 75.7857 29.3913 80 40 80C50.6087 80 60.7828 75.7857 68.2843 68.2843C75.7857 60.7828 80 50.6087 80 40C80 29.3913 75.7857 19.2172 68.2843 11.7157C60.7828 4.21427 50.6087 0 40 0ZM27.5625 37.5C28.8886 37.5 30.1604 36.9732 31.098 36.0355C32.0357 35.0979 32.5625 33.8261 32.5625 32.5C32.5625 31.1739 32.0357 29.9021 31.098 28.9645C30.1604 28.0268 28.8886 27.5 27.5625 27.5C26.2364 27.5 24.9646 28.0268 24.027 28.9645C23.0893 29.9021 22.5625 31.1739 22.5625 32.5C22.5625 33.8261 23.0893 35.0979 24.027 36.0355C24.9646 36.9732 26.2364 37.5 27.5625 37.5ZM57.5625 32.5C57.5625 31.1739 57.0357 29.9021 56.098 28.9645C55.1604 28.0268 53.8886 27.5 52.5625 27.5C51.2364 27.5 49.9646 28.0268 49.027 28.9645C48.0893 29.9021 47.5625 31.1739 47.5625 32.5C47.5625 33.8261 48.0893 35.0979 49.027 36.0355C49.9646 36.9732 51.2364 37.5 52.5625 37.5C53.8886 37.5 55.1604 36.9732 56.098 36.0355C57.0357 35.0979 57.5625 33.8261 57.5625 32.5ZM28.5625 52.5C28.5625 52.5 24.8125 54.1719 24.8125 56.25C24.8125 58.3281 26.4844 60 28.5625 60C38.9085 55.2993 44.0353 53.7687 53 55C55.0781 55 57 54.0781 57 52C57 49.9219 55.5 48.5 53 48C50.5 47.5 44.9705 47.7353 40 48.5C33.5 49.5 28.5625 52.5 28.5625 52.5Z" fill="black"/>
</svg>
