<svg width="80" height="80" viewBox="0 0 80 80" fill="none" xmlns="http://www.w3.org/2000/svg">
<path d="M72.5 40C72.5 31.3805 69.0759 23.114 62.981 17.019C56.886 10.9241 48.6195 7.5 40 7.5C31.3805 7.5 23.114 10.9241 17.019 17.019C10.9241 23.114 7.5 31.3805 7.5 40C7.5 48.6195 10.9241 56.886 17.019 62.981C23.114 69.0759 31.3805 72.5 40 72.5C48.6195 72.5 56.886 69.0759 62.981 62.981C69.0759 56.886 72.5 48.6195 72.5 40ZM0 40C0 29.3913 4.21427 19.2172 11.7157 11.7157C19.2172 4.21427 29.3913 0 40 0C50.6087 0 60.7828 4.21427 68.2843 11.7157C75.7857 19.2172 80 29.3913 80 40C80 50.6087 75.7857 60.7828 68.2843 68.2843C60.7828 75.7857 50.6087 80 40 80C29.3913 80 19.2172 75.7857 11.7157 68.2843C4.21427 60.7828 0 50.6087 0 40ZM20.4219 49.0469C19.7656 46.9219 21.5313 45 23.75 45H56.9531C59.1719 45 60.9375 46.9375 60.2813 49.0469C57.6563 57.5625 49.7188 63.75 40.3438 63.75C30.9688 63.75 23.0313 57.5625 20.4219 49.0469ZM34 35.75L33.9688 35.7188C33.9375 35.6875 33.9063 35.6406 33.8594 35.5781C33.7656 35.4531 33.6094 35.2656 33.4219 35.0469C33.0313 34.6094 32.4844 34.0156 31.8281 33.4375C30.4531 32.2188 28.8906 31.25 27.5 31.25C26.1094 31.25 24.5469 32.2188 23.1719 33.4375C22.5156 34.0156 21.9688 34.6094 21.5781 35.0469C21.3906 35.2656 21.2344 35.4531 21.1406 35.5781C21.0938 35.6406 21.0469 35.6875 21.0313 35.7188L21 35.75C20.6719 36.1875 20.1094 36.3594 19.6094 36.1875C19.1094 36.0156 18.75 35.5469 18.75 35C18.75 32.2031 19.7969 29.4375 21.3438 27.375C22.875 25.3438 25.0781 23.75 27.5 23.75C29.9219 23.75 32.125 25.3438 33.6563 27.375C35.2031 29.4375 36.25 32.2031 36.25 35C36.25 35.5313 35.9063 36.0156 35.3906 36.1875C34.875 36.3594 34.3125 36.1875 34 35.75ZM59 35.75L58.9688 35.7188C58.9375 35.6875 58.9063 35.6406 58.8594 35.5781C58.7656 35.4531 58.6094 35.2656 58.4219 35.0469C58.0313 34.6094 57.4844 34.0156 56.8281 33.4375C55.4531 32.2188 53.8906 31.25 52.5 31.25C51.1094 31.25 49.5469 32.2188 48.1719 33.4375C47.5156 34.0156 46.9688 34.6094 46.5781 35.0469C46.3906 35.2656 46.2344 35.4531 46.1406 35.5781C46.0938 35.6406 46.0469 35.6875 46.0313 35.7188L46 35.75C45.6719 36.1875 45.1094 36.3594 44.6094 36.1875C44.1094 36.0156 43.75 35.5469 43.75 35C43.75 32.2031 44.7969 29.4375 46.3438 27.375C47.875 25.3438 50.0781 23.75 52.5 23.75C54.9219 23.75 57.125 25.3438 58.6563 27.375C60.2031 29.4375 61.25 32.2031 61.25 35C61.25 35.5313 60.9063 36.0156 60.3906 36.1875C59.875 36.3594 59.3125 36.1875 59 35.75Z" fill="black"/>
</svg>
