<svg width="45" height="45" viewBox="0 0 45 45" fill="none" xmlns="http://www.w3.org/2000/svg">
<path d="M39.9816 22.0588C39.9816 17.3054 38.0933 12.7467 34.7322 9.38549C31.371 6.02432 26.8122 4.13603 22.0588 4.13603C17.3054 4.13603 12.7467 6.02432 9.38549 9.38549C6.02432 12.7467 4.13603 17.3054 4.13603 22.0588C4.13603 26.8122 6.02432 31.371 9.38549 34.7322C12.7467 38.0933 17.3054 39.9816 22.0588 39.9816C26.8122 39.9816 31.371 38.0933 34.7322 34.7322C38.0933 31.371 39.9816 26.8122 39.9816 22.0588ZM0 22.0588C0 16.2085 2.32405 10.5977 6.46088 6.46088C10.5977 2.32405 16.2085 0 22.0588 0C27.9092 0 33.5199 2.32405 37.6568 6.46088C41.7936 10.5977 44.1176 16.2085 44.1176 22.0588C44.1176 27.9092 41.7936 33.5199 37.6568 37.6568C33.5199 41.7936 27.9092 44.1176 22.0588 44.1176C16.2085 44.1176 10.5977 41.7936 6.46088 37.6568C2.32405 33.5199 0 27.9092 0 22.0588ZM15.0448 33.0968C14.6571 34.1739 13.4766 34.7254 12.3995 34.3377C11.3224 33.9499 10.7709 32.7694 11.1587 31.6923C12.658 27.5218 17.1387 24.8162 22.0588 24.8162C26.979 24.8162 31.4597 27.5218 32.9676 31.7009C33.3554 32.778 32.7953 33.9585 31.7268 34.3463C30.6583 34.734 29.4692 34.1739 29.0815 33.1055C28.2801 30.891 25.6089 28.9522 22.0588 28.9522C18.5087 28.9522 15.8375 30.891 15.0448 33.0968ZM12.4426 17.9228C12.4426 17.1915 12.7331 16.4902 13.2502 15.973C13.7673 15.4559 14.4686 15.1654 15.1999 15.1654C15.9312 15.1654 16.6325 15.4559 17.1497 15.973C17.6668 16.4902 17.9573 17.1915 17.9573 17.9228C17.9573 18.6541 17.6668 19.3554 17.1497 19.8725C16.6325 20.3896 15.9312 20.6801 15.1999 20.6801C14.4686 20.6801 13.7673 20.3896 13.2502 19.8725C12.7331 19.3554 12.4426 18.6541 12.4426 17.9228ZM28.9867 15.1654C29.718 15.1654 30.4193 15.4559 30.9364 15.973C31.4535 16.4902 31.744 17.1915 31.744 17.9228C31.744 18.6541 31.4535 19.3554 30.9364 19.8725C30.4193 20.3896 29.718 20.6801 28.9867 20.6801C28.2554 20.6801 27.554 20.3896 27.0369 19.8725C26.5198 19.3554 26.2293 18.6541 26.2293 17.9228C26.2293 17.1915 26.5198 16.4902 27.0369 15.973C27.554 15.4559 28.2554 15.1654 28.9867 15.1654Z" fill="#FA9189"/>
</svg>
