<svg width="80" height="80" viewBox="0 0 80 80" fill="none" xmlns="http://www.w3.org/2000/svg">
<path d="M72.5 40C72.5 31.3805 69.0759 23.114 62.981 17.019C56.886 10.9241 48.6195 7.5 40 7.5C31.3805 7.5 23.114 10.9241 17.019 17.019C10.9241 23.114 7.5 31.3805 7.5 40C7.5 48.6195 10.9241 56.886 17.019 62.981C23.114 69.0759 31.3805 72.5 40 72.5C48.6195 72.5 56.886 69.0759 62.981 62.981C69.0759 56.886 72.5 48.6195 72.5 40ZM0 40C0 29.3913 4.21427 19.2172 11.7157 11.7157C19.2172 4.21427 29.3913 0 40 0C50.6087 0 60.7828 4.21427 68.2843 11.7157C75.7857 19.2172 80 29.3913 80 40C80 50.6087 75.7857 60.7828 68.2843 68.2843C60.7828 75.7857 50.6087 80 40 80C29.3913 80 19.2172 75.7857 11.7157 68.2843C4.21427 60.7828 0 50.6087 0 40ZM27.75 49.7031C30.125 52.2656 34.1875 55 40 55C45.8125 55 49.875 52.2656 52.25 49.7031C53.6563 48.1875 56.0313 48.0781 57.5469 49.4844C59.0625 50.8906 59.1719 53.2656 57.7656 54.7813C54.3281 58.5 48.3906 62.5 40.0156 62.5C31.6406 62.5 25.6875 58.5156 22.2656 54.7813C20.8594 53.2656 20.9531 50.8906 22.4844 49.4844C24.0156 48.0781 26.375 48.1719 27.7813 49.7031H27.75ZM22.5625 32.5C22.5625 31.1739 23.0893 29.9021 24.027 28.9645C24.9646 28.0268 26.2364 27.5 27.5625 27.5C28.8886 27.5 30.1604 28.0268 31.098 28.9645C32.0357 29.9021 32.5625 31.1739 32.5625 32.5C32.5625 33.8261 32.0357 35.0979 31.098 36.0355C30.1604 36.9732 28.8886 37.5 27.5625 37.5C26.2364 37.5 24.9646 36.9732 24.027 36.0355C23.0893 35.0979 22.5625 33.8261 22.5625 32.5ZM52.5625 27.5C53.8886 27.5 55.1604 28.0268 56.098 28.9645C57.0357 29.9021 57.5625 31.1739 57.5625 32.5C57.5625 33.8261 57.0357 35.0979 56.098 36.0355C55.1604 36.9732 53.8886 37.5 52.5625 37.5C51.2364 37.5 49.9647 36.9732 49.027 36.0355C48.0893 35.0979 47.5625 33.8261 47.5625 32.5C47.5625 31.1739 48.0893 29.9021 49.027 28.9645C49.9647 28.0268 51.2364 27.5 52.5625 27.5Z" fill="black"/>
</svg>
