<svg width="80" height="80" viewBox="0 0 80 80" fill="none" xmlns="http://www.w3.org/2000/svg">
<path d="M72.5 40C72.5 31.3805 69.0759 23.114 62.981 17.019C56.886 10.9241 48.6195 7.5 40 7.5C31.3805 7.5 23.114 10.9241 17.019 17.019C10.9241 23.114 7.5 31.3805 7.5 40C7.5 48.6195 10.9241 56.886 17.019 62.981C23.114 69.0759 31.3805 72.5 40 72.5C48.6195 72.5 56.886 69.0759 62.981 62.981C69.0759 56.886 72.5 48.6195 72.5 40ZM0 40C0 29.3913 4.21427 19.2172 11.7157 11.7157C19.2172 4.21427 29.3913 0 40 0C50.6087 0 60.7828 4.21427 68.2843 11.7157C75.7857 19.2172 80 29.3913 80 40C80 50.6087 75.7857 60.7828 68.2843 68.2843C60.7828 75.7857 50.6087 80 40 80C29.3913 80 19.2172 75.7857 11.7157 68.2843C4.21427 60.7828 0 50.6087 0 40ZM27.2812 60.0156C26.5781 61.9688 24.4375 62.9688 22.4844 62.2656C20.5312 61.5625 19.5312 59.4219 20.2344 57.4688C22.9531 49.9062 31.0781 45 40 45C48.9219 45 57.0469 49.9062 59.7812 57.4844C60.4844 59.4375 59.4688 61.5781 57.5312 62.2812C55.5938 62.9844 53.4375 61.9688 52.7344 60.0312C51.2812 56.0156 46.4375 52.5 40 52.5C33.5625 52.5 28.7188 56.0156 27.2812 60.0156ZM22.5625 32.5C22.5625 31.1739 23.0893 29.9021 24.027 28.9645C24.9646 28.0268 26.2364 27.5 27.5625 27.5C28.8886 27.5 30.1604 28.0268 31.098 28.9645C32.0357 29.9021 32.5625 31.1739 32.5625 32.5C32.5625 33.8261 32.0357 35.0979 31.098 36.0355C30.1604 36.9732 28.8886 37.5 27.5625 37.5C26.2364 37.5 24.9646 36.9732 24.027 36.0355C23.0893 35.0979 22.5625 33.8261 22.5625 32.5ZM52.5625 27.5C53.8886 27.5 55.1604 28.0268 56.098 28.9645C57.0357 29.9021 57.5625 31.1739 57.5625 32.5C57.5625 33.8261 57.0357 35.0979 56.098 36.0355C55.1604 36.9732 53.8886 37.5 52.5625 37.5C51.2364 37.5 49.9647 36.9732 49.027 36.0355C48.0893 35.0979 47.5625 33.8261 47.5625 32.5C47.5625 31.1739 48.0893 29.9021 49.027 28.9645C49.9647 28.0268 51.2364 27.5 52.5625 27.5Z" fill="black"/>
</svg>
