<svg width="177" height="87" viewBox="0 0 177 87" fill="none" xmlns="http://www.w3.org/2000/svg">
<path d="M175.575 74.9457C175.672 73.5722 176.562 69.7363 176.534 68.9907C176.437 59.4353 167.844 27.9435 166.467 20.2717L166.384 19.8008C165.911 16.789 165.731 13.2081 164.159 10.3631C162.574 7.49841 157.443 6.49774 153.745 5.48726C138.436 1.36684 121.152 -2.10608 104.911 1.52381C98.5709 2.93652 92.8561 5.45783 88.2675 9.43108C83.6929 5.45783 77.9642 2.93652 71.6375 1.52381C55.3969 -2.10608 38.1134 1.36684 22.8043 5.48726C19.1057 6.48793 13.947 7.4886 12.3758 10.3631C10.8046 13.2081 10.6238 16.7792 10.151 19.8008L10.0676 20.2717C8.69105 27.9435 0.111866 59.4353 0.000628501 68.9907C-0.0271809 69.7461 0.876623 73.5722 0.973956 74.9457C1.113 76.9274 0.779291 78.9189 0.918338 80.8909C0.640244 81.5776 0.890528 82.2251 1.48843 82.7352C1.87776 83.265 2.47566 83.5888 3.12918 83.7555C4.61698 84.9132 7.31449 84.1479 9.08039 83.7555C24.9039 80.1453 42.2987 80.2826 58.6228 81.813C61.5149 82.0779 64.3932 82.4115 67.2576 82.8039C70.2332 83.216 73.0558 83.9615 75.9063 84.6777C78.2562 85.2663 80.7173 85.7569 83.1923 86.0904C84.9721 86.3749 86.7102 86.4927 87.5028 86.5025C87.7809 86.5025 88.0312 86.4828 88.2953 86.473C88.5595 86.473 88.8237 86.5025 89.0879 86.5025C89.8805 86.5025 91.6186 86.3847 93.3984 86.0904C95.8734 85.7569 98.3345 85.2663 100.684 84.6777C103.535 83.9615 106.371 83.216 109.347 82.8039C112.211 82.4115 115.09 82.0779 117.982 81.813C134.292 80.2826 151.701 80.1453 167.524 83.7555C169.276 84.1578 171.974 84.9132 173.462 83.7555C174.129 83.5888 174.713 83.265 175.102 82.7352C175.7 82.2251 175.95 81.5776 175.672 80.8909C175.77 78.9091 175.436 76.9274 175.575 74.9457ZM49.8211 62.1233C43.4389 61.9762 37.0427 62.2018 30.73 62.8297C25.3071 63.3693 19.9538 64.2228 14.7396 65.3706C13.4743 65.6453 12.056 65.871 10.8602 66.2928C10.0954 66.5675 9.46972 66.8814 8.78839 66.283C7.84287 65.4785 8.46858 64.0168 8.62153 63.0946C8.92743 61.2404 9.27505 59.396 9.67829 57.5516C11.4303 49.3402 13.7802 41.2073 15.3792 32.9763C16.0744 29.3366 16.6445 25.6675 17.312 22.0278C17.6457 20.154 18.0211 18.2802 18.4521 16.4162C18.9805 14.1303 19.0918 12.5214 22.123 11.1381C27.2816 8.78359 33.4692 7.74368 39.3787 6.73319C45.747 5.64423 52.1015 4.72203 58.6923 4.89862C63.3086 5.02616 67.7999 5.88949 71.8739 7.41012C73.8484 8.14591 75.7394 9.00923 77.5331 9.96085C79.3129 10.8929 81.4821 11.8935 82.9003 13.0904C84.1657 14.1499 84.5689 15.1114 84.694 16.2101C83.818 30.2686 83.9571 65.1254 84.11 67.5976C84.1239 67.8036 84.1518 68.0097 84.1657 68.2157C84.0961 68.4806 83.8876 68.6866 83.2758 68.6866C82.5388 68.6964 81.7323 68.353 81.0927 68.1176C79.7718 67.627 78.4369 67.1561 77.1021 66.7147C68.4673 63.8402 59.3736 62.3392 49.8211 62.1233ZM167.719 66.2732C167.024 66.8716 166.412 66.5577 165.647 66.283C164.465 65.8612 163.047 65.6355 161.768 65.3608C156.553 64.213 151.2 63.3693 145.777 62.8199C139.465 62.192 133.055 61.9762 126.672 62.1135C117.134 62.3294 108.04 63.8304 99.3913 66.7049C98.0564 67.1561 96.7216 67.627 95.4006 68.1078C94.761 68.3432 93.9546 68.6768 93.2037 68.6768C92.5919 68.6768 92.3833 68.4707 92.3138 68.2059C92.3277 67.9998 92.3694 67.7938 92.3694 67.5878C92.5224 65.1156 92.6753 30.2588 91.7854 16.2003C91.9106 15.1016 92.3138 14.1401 93.5652 13.0806C95.0113 11.8837 97.1665 10.8732 98.9463 9.95104C100.74 9.00923 102.617 8.1361 104.606 7.40031C108.694 5.87968 113.171 5.01635 117.787 4.88882C124.378 4.70242 130.732 5.63441 137.101 6.72338C143.01 7.73386 149.198 8.76397 154.37 11.1283C157.402 12.5116 157.513 14.1205 158.041 16.4064C158.472 18.2704 158.848 20.1442 159.181 22.018C159.835 25.6675 160.405 29.3268 161.114 32.9665C162.713 41.1877 165.077 49.3304 166.815 57.5418C167.191 59.3862 167.566 61.2306 167.872 63.0848C168.039 64.007 168.664 65.4687 167.719 66.2732Z" fill="#5D3F80" fill-opacity="0.7"/>
<path d="M73.0558 15.8765C59.8881 11.5207 42.1457 11.2852 28.8946 15.7588C25.3906 16.9459 28.4496 20.5267 31.9258 19.4181C43.2025 15.7882 58.6645 16.3376 69.6075 20.0362C73.5564 21.3606 77.0187 17.1911 73.0558 15.8765ZM72.6387 27.3548C58.6228 23.0186 40.6023 21.3802 26.4612 26.5209C23.3883 27.6393 26.0858 30.7002 29.1309 29.7388C42.104 25.6478 57.6494 28.0514 70.261 31.3477C73.5286 32.211 75.8507 28.3457 72.6387 27.3548ZM71.9017 38.8037C70.4139 37.9208 68.3421 37.5087 66.5484 37.0476C53.5337 33.6924 36.2501 33.5551 23.7498 38.0679C20.9967 39.0588 23.3188 41.8842 26.0302 41.3348C32.8435 39.9711 39.2535 39.2157 46.331 39.1667C51.879 39.1274 56.9125 39.5395 62.2102 40.6579C63.8092 40.9914 65.3387 41.119 66.8683 41.6291C67.9667 41.9921 69.3294 42.4532 70.5391 42.5611C73.181 42.7868 73.7233 40.0496 72.2355 39.0097L71.9017 38.8037ZM70.5252 49.8601C55.4803 44.8568 38.6 45.779 23.3744 49.5658C20.2319 50.3507 21.7337 53.7647 24.9317 53.0584C32.0926 51.4691 38.0577 50.282 45.6636 50.2133C52.9775 50.1545 60.917 51.8419 67.6191 53.6961C71.2204 54.7065 74.1821 51.0766 70.5252 49.8601ZM106.9 20.0264C117.843 16.3278 133.305 15.7882 144.582 19.4083C148.044 20.5267 151.117 16.9361 147.613 15.749C134.375 11.2754 116.633 11.5109 103.465 15.8667C99.4886 17.1911 102.937 21.3606 106.9 20.0264ZM106.26 31.3477C118.872 28.0514 134.417 25.6478 147.39 29.7388C150.435 30.7002 153.133 27.6393 150.06 26.5209C135.905 21.3802 117.885 23.0186 103.883 27.3548C100.671 28.3457 102.979 32.211 106.26 31.3477ZM105.968 42.5709C107.192 42.463 108.527 42.0019 109.625 41.6389C111.169 41.1288 112.698 41.0012 114.297 40.6677C119.595 39.5591 124.628 39.1471 130.176 39.1765C137.254 39.2157 143.678 39.9711 150.491 41.3446C153.189 41.894 155.511 39.0588 152.771 38.0777C140.271 33.5649 122.974 33.7022 109.973 37.0574C108.179 37.5185 106.107 37.9207 104.606 38.8135L104.272 39.0293C102.77 40.0496 103.34 42.7966 105.968 42.5709ZM153.147 49.5658C137.921 45.779 121.041 44.8568 105.996 49.8601C102.339 51.0766 105.301 54.7065 108.916 53.6961C115.604 51.8419 123.53 50.1545 130.858 50.2133C138.45 50.282 144.429 51.4691 151.576 53.0584C154.788 53.7745 156.289 50.3507 153.147 49.5658Z" fill="#5D3F80" fill-opacity="0.7"/>
</svg>
